
<svg viewBox="0 0 24 24" fill="none" xmlns="http://www.w3.org/2000/svg"><path fill-rule="evenodd" clip-rule="evenodd" d="M3 6.6A3.6 3.6 0 016.6 3h10.8A3.6 3.6 0 0121 6.6v10.8a3.6 3.6 0 01-3.6 3.6H6.6A3.6 3.6 0 013 17.4V6.6zm3.6-1.8a1.8 1.8 0 00-1.8 1.8v10.8a1.8 1.8 0 001.8 1.8H12v-6.3h-.9a.9.9 0 110-1.8h.9V9.75a3.15 3.15 0 013.15-3.15h.54a.9.9 0 010 1.8h-.54a1.35 1.35 0 00-1.35 1.35v1.35h1.89a.9.9 0 110 1.8H13.8v6.3h3.6a1.8 1.8 0 001.8-1.8V6.6a1.8 1.8 0 00-1.8-1.8H6.6z" fill="currentColor"/></svg>