<svg viewBox="0 0 23 23" fill="none" xmlns="http://www.w3.org/2000/svg"><path d="M21.848 15.886l-1.306-.152-3.598-.433a77.34 77.34 0 01.263-3.867c.053-.669.125-1.361.197-2.082 0-.045.01-.082.01-.127l4.228.37.054-.027c.55-.67.802-1.175.758-1.516 0-.729-.226-1.109-.67-1.125-.35-.028-1.721-.134-4.11-.316.167-1.812.36-3.625.55-5.428a.67.67 0 00-.398-.423c-.062-.018-.251-.072-.576-.154a2.573 2.573 0 00-.64-.09c-.524 0-.821.199-.875.604a872.657 872.657 0 00-.622 5.283c-.46-.037-.955-.072-1.468-.117-.777-.063-1.524-.109-2.237-.154-.776-2.174-1.433-3.803-1.992-4.85-.669-.55-1.18-.803-1.523-.758-.731 0-1.1.226-1.12.67a453.23 453.23 0 00-.377 4.751c-.28-.01-.54-.01-.803-.01-1.234 0-2.415.027-3.55.09-.344.019-.678.045-1.004.064a.978.978 0 00-.73.486c-.071.154-.225.271-.27.577-.096.193.003.594.048.862.045.267.612.669 1.2.642 1.595-.08 3.163-.12 4.704-.117h.207v.01c-.016.253-.045.502-.061.774a149.74 149.74 0 00-.253 3.847c-.018.37-.037.731-.045 1.082-.67-.027-2.02-.108-2.11-.072-.09.037-.177.079-.262.126-.848.423-1.27.955-1.27 1.577a1.208 1.208 0 00.36.866 1.065 1.065 0 00.857.352c.684-.046 1.38-.064 2.09-.064h.263v.335c0 1.234.035 2.415.099 3.55l.053 1.004a1.003 1.003 0 00.487.729c.167.082.27.226.577.27.199.1.604 0 .866-.044.263-.045.67-.604.658-1.2a88.147 88.147 0 01-.126-4.56c1.442.08 3.047.207 4.822.396.334.74.65 1.397.947 1.984.424.846.956 1.27 1.587 1.27.324-.001.635-.131.865-.36a1.033 1.033 0 00.334-.857c-.027-.55-.045-1.1-.045-1.672 1.632.153 3.265.316 4.887.486a.623.623 0 00.423-.388c.018-.063.072-.252.154-.577.056-.208.086-.423.09-.639.009-.516-.19-.814-.597-.878zm-11.674-1.361l-.54-.062-1.218-.072a96.79 96.79 0 01.109-2.341 62.8 62.8 0 01.298-3.427v-.035c.018-.253.053-.502.08-.758.037-.28.127-.423.27-.423.064 0 .11.053.155.179.125.353.252.695.37 1.037v.026c.334.894.64 1.75.946 2.561.306.811.614 1.606.893 2.341l.477 1.181c-.224-.026-.442-.045-.65-.072l-1.19-.135zm4.544-4.814c-.117 1.004-.216 1.912-.306 2.715-.045.314-.072.62-.109.91a14.294 14.294 0 01-.378-.74c-.316-.64-.64-1.38-.975-2.236a39.248 39.248 0 01-.603-1.577c.18.019.622.054 1.236.109.404.035.82.08 1.216.125-.027.234-.06.469-.08.694z" fill="currentColor"/></svg>