<svg viewBox="0 0 24 24" fill="none" xmlns="http://www.w3.org/2000/svg"><path fill-rule="evenodd" clip-rule="evenodd" d="M7.248 4.07C8.43 2.666 10.104 2 12 2c1.94 0 3.604.784 4.764 2.213 1.03 1.27 1.613 2.984 1.72 4.977l.091.014.02.003c.17.024.373.054.584.095.781.151 2.114.533 2.573 1.964.23.719.115 1.385-.288 1.913-.347.455-.843.718-1.198.877-.176.08-.352.148-.5.205.346.936.948 1.899 1.614 2.771.627.822.461 1.863.137 2.542-.325.68-1.027 1.457-2.049 1.501-.578.025-1.185.085-1.789.195-.273.05-.595.159-.995.324-.239.098-.458.196-.694.301-.188.084-.386.172-.615.27-.94.404-2.095.835-3.375.835-1.28 0-2.435-.431-3.375-.835a36.908 36.908 0 01-.615-.27c-.23-.104-.461-.204-.694-.301-.4-.165-.722-.275-.995-.325a13.22 13.22 0 00-1.79-.194c-1.02-.044-1.724-.821-2.048-1.501-.324-.679-.49-1.72.137-2.542.67-.878 1.275-1.848 1.62-2.79a8.907 8.907 0 01-.449-.191c-.346-.162-.816-.421-1.163-.855-.387-.486-.558-1.113-.406-1.831.324-1.537 1.77-1.92 2.534-2.064.217-.04.428-.07.605-.095l.035-.005.12-.017c.1-2.125.678-3.863 1.732-5.114zm1.53 1.288c-.763.905-1.278 2.36-1.278 4.5v.104l-.022.103c-.11.524-.514.769-.714.863-.21.099-.437.148-.597.178-.156.029-.33.053-.485.074l-.046.007c-.17.023-.341.05-.51.08-.766.143-.91.333-.948.51-.026.127-.003.153.01.167l.004.004c.053.067.181.167.447.291.124.058.255.111.4.17l.036.014c.127.05.278.111.411.174.131.06.35.17.536.348.216.207.477.611.35 1.144-.364 1.531-1.283 3.005-2.16 4.155a.237.237 0 00-.017.106c0 .095.027.225.092.362.066.137.15.242.228.305.064.052.1.06.104.06.651.028 1.35.096 2.06.225.483.088.96.262 1.4.444.243.1.522.224.793.344.19.084.374.166.54.237.9.385 1.738.673 2.588.673.85 0 1.69-.288 2.588-.673.166-.071.351-.154.54-.237.27-.12.55-.244.792-.344.44-.182.917-.356 1.4-.444.71-.13 1.41-.197 2.06-.225.006 0 .041-.008.105-.06a.909.909 0 00.228-.305.883.883 0 00.092-.362c0-.093-.023-.115-.015-.104-.878-1.15-1.798-2.625-2.163-4.157-.135-.57.174-.98.387-1.17.19-.168.412-.273.547-.332.135-.06.287-.117.417-.166l.048-.019c.153-.057.29-.11.42-.169.27-.121.384-.214.423-.261a.442.442 0 00-.02-.095c-.092-.284-.349-.476-1.05-.612-.16-.03-.32-.054-.49-.08l-.039-.005a9.818 9.818 0 01-.473-.076 2.339 2.339 0 01-.589-.186c-.21-.104-.58-.353-.686-.853l-.022-.103v-.105c0-1.95-.507-3.42-1.289-4.383C14.446 4.53 13.361 4 12.001 4c-1.406 0-2.48.476-3.224 1.358h.001z" fill="currentColor"/></svg>