<svg viewBox="0 0 24 24" fill="none" xmlns="http://www.w3.org/2000/svg">
<path d="M11.9998 1C7.7428 1 4.2998 4.443 4.2998 8.7C4.2998 14.475 11.9998 23 11.9998 23C11.9998 23 19.6998 14.475 19.6998 8.7C19.6998 4.443 16.2568 1 11.9998 1ZM6.4998 8.7C6.4998 5.664 8.9638 3.2 11.9998 3.2C15.0358 3.2 17.4998 5.664 17.4998 8.7C17.4998 11.868 14.3318 16.609 11.9998 19.568C9.7118 16.631 6.4998 11.835 6.4998 8.7Z" fill="currentColor"/>
<path d="M12 11.45C13.5188 11.45 14.75 10.2188 14.75 8.70001C14.75 7.18123 13.5188 5.95001 12 5.95001C10.4812 5.95001 9.25 7.18123 9.25 8.70001C9.25 10.2188 10.4812 11.45 12 11.45Z" fill="currentColor"/>
</svg>
