<svg viewBox="0 0 200 36" fill="none" xmlns="http://www.w3.org/2000/svg"><g clip-path="url(#clip0)" fill="currentColor"><path d="M21.848 20.886l-1.306-.152-3.598-.433a77.34 77.34 0 01.263-3.867c.053-.669.125-1.361.197-2.082 0-.045.01-.082.01-.127l4.228.37.054-.027c.55-.67.802-1.175.758-1.516 0-.729-.226-1.109-.67-1.125-.35-.028-1.721-.133-4.11-.316.167-1.812.36-3.625.55-5.428a.67.67 0 00-.398-.423c-.062-.018-.251-.072-.576-.154a2.573 2.573 0 00-.64-.09c-.524 0-.821.199-.875.604a872.755 872.755 0 00-.622 5.283c-.46-.037-.955-.072-1.468-.117-.777-.063-1.524-.109-2.237-.154-.776-2.174-1.433-3.803-1.992-4.85-.669-.55-1.18-.803-1.523-.758-.731 0-1.1.226-1.12.67-.034.387-.166 1.975-.377 4.75-.28-.01-.54-.01-.803-.01-1.234 0-2.415.028-3.55.091-.344.019-.678.045-1.004.064a.978.978 0 00-.73.486c-.071.154-.225.271-.27.578-.096.192.003.593.048.86.045.268.612.67 1.2.643 1.595-.08 3.163-.12 4.704-.117h.207v.01c-.016.253-.045.502-.061.774-.11 1.38-.191 2.676-.253 3.847-.018.37-.037.731-.045 1.082-.67-.026-2.02-.108-2.11-.072-.09.037-.177.079-.262.126-.848.423-1.27.955-1.27 1.577a1.208 1.208 0 00.36.866 1.065 1.065 0 00.857.352c.684-.046 1.38-.064 2.09-.064h.263v.335c0 1.234.035 2.415.099 3.55l.053 1.004a1.003 1.003 0 00.487.729c.167.082.27.226.577.27.199.1.604 0 .866-.044.263-.045.67-.604.658-1.2a88.147 88.147 0 01-.126-4.56c1.442.08 3.047.207 4.822.396.334.74.65 1.397.947 1.984.424.846.956 1.27 1.587 1.27.324-.001.635-.131.865-.36a1.033 1.033 0 00.334-.857c-.027-.55-.045-1.1-.045-1.672 1.632.153 3.265.316 4.887.486a.623.623 0 00.423-.388c.018-.063.072-.252.154-.577.056-.208.086-.423.09-.639.009-.516-.19-.814-.597-.878zm-11.674-1.361l-.54-.062-1.218-.072a96.79 96.79 0 01.109-2.341 62.8 62.8 0 01.298-3.427v-.035c.018-.253.053-.502.08-.758.037-.28.127-.423.27-.423.064 0 .11.053.155.179.125.353.252.695.37 1.037v.026c.334.894.64 1.75.946 2.561.306.811.614 1.606.893 2.341l.477 1.181c-.224-.026-.442-.045-.65-.072l-1.19-.135zm4.544-4.814c-.117 1.004-.216 1.912-.306 2.715-.045.314-.072.62-.109.91a14.294 14.294 0 01-.378-.74c-.316-.64-.64-1.38-.975-2.236a39.235 39.235 0 01-.603-1.577c.18.019.622.054 1.236.109.404.035.82.08 1.216.125-.027.235-.06.469-.08.694zM121.534 0h5.737v15.653h.097L138.239 0h6.285l-10.369 15.15 11.48 20.777h-6.489l-8.709-16.153-3.166 4.527v11.626h-5.737V0zM27.41 0h6.995l10.416 26.773h.1V0h5.441v35.927h-6.999L32.947 8.453h-.102v27.474H27.41V0zM56.312 0h19.422v4.83H62.048v9.967h10.283l.926 4.79-11.205.04V31.1h14.084v4.827H56.312V0zM77.865 0h5.78l4.73 27.93h.102L93.21 0h6.04l4.832 28.081h.102L108.867 0h5.686l-7.148 35.927h-6.643L96.132 8.86h-.102l-4.577 27.068h-6.647L77.866 0zM147.41 0h5.736v35.927h-3.315l-2.421-4.382V0zM164.727 4.83h-8.552V0h19.828l-3.355 4.83h-2.174v31.097h-5.747V4.83zM177.958 0h5.737v14.395h10.568V0H200v35.927h-5.737V19.226h-10.568v16.701h-5.737V0z"/></g><defs><clipPath id="clip0"><path fill="currentColor" d="M0 0h200v35.932H0z"/></clipPath></defs></svg>