<svg id="Layer_1" data-name="Layer 1" xmlns="http://www.w3.org/2000/svg" viewBox="0 0 1195.81 214.84">
<defs><style>.cls-1{fill:#0202c4}</style></defs>
<path 
class="cls-1" 
d="M134.51 125.07l-7.81-.91-21.51-2.59c.27-6.95.81-14.66 1.57-23.12.32-4 .75-8.14 1.18-12.45 0-.27.06-.49.06-.76l25.28 2.21.32-.16q4.93-6 4.53-9.06c0-4.36-1.35-6.63-4-6.73q-3.15-.25-24.58-1.89c1-10.83 2.15-21.67 3.29-32.45a4 4 0 00-2.38-2.53c-.37-.11-1.5-.43-3.44-.92a15.38 15.38 0 00-3.83-.54c-3.13 0-4.91 1.19-5.23 3.61-1.4 11.59-2.64 22.16-3.72 31.59-2.75-.22-5.71-.43-8.78-.7-4.64-.38-9.11-.65-13.37-.92-4.64-13-8.57-22.74-11.91-29-4-3.29-7.06-4.8-9.11-4.53-4.37 0-6.58 1.35-6.69 4-.21 2.32-1 11.81-2.26 28.41-1.67-.06-3.23-.06-4.8-.06-7.38 0-14.44.16-21.23.54-2.05.11-4.05.27-6 .38a5.85 5.85 0 00-4.36 2.91c-.43.92-1.35 1.62-1.62 3.45-.57 1.15.02 3.55.29 5.15s3.66 4 7.17 3.84q14.31-.72 28.13-.7h1.24v.06c-.1 1.51-.27 3-.37 4.63-.65 8.25-1.14 16-1.51 23-.11 2.21-.22 4.37-.27 6.47-4-.16-12.08-.65-12.62-.43a14 14 0 00-1.56.75c-5.07 2.53-7.6 5.71-7.6 9.43a7.22 7.22 0 002.16 5.18 6.37 6.37 0 005.12 2.1c4.09-.27 8.25-.38 12.5-.38h1.57v2c0 7.38.21 14.44.59 21.23.11 2.05.21 4.05.32 6a6 6 0 002.91 4.36c1 .49 1.62 1.35 3.45 1.62 1.19.59 3.61 0 5.18-.27s4-3.61 3.93-7.17c-.48-9.27-.75-18.33-.75-27.27 8.62.48 18.22 1.24 28.83 2.37 2 4.42 3.89 8.35 5.66 11.86 2.54 5.06 5.72 7.6 9.49 7.6a7.37 7.37 0 005.17-2.16 6.17 6.17 0 002-5.12c-.16-3.29-.27-6.58-.27-10 9.76.92 19.52 1.89 29.22 2.91a3.73 3.73 0 002.53-2.32c.11-.38.43-1.51.92-3.45a15.79 15.79 0 00.54-3.82c.05-3.09-1.14-4.87-3.57-5.25zm-69.8-8.14l-3.23-.37-7.28-.43c.16-4.69.38-9.38.65-14 .43-7 1-13.8 1.78-20.49v-.21c.11-1.51.32-3 .48-4.53.22-1.67.76-2.53 1.62-2.53.38 0 .65.32.92 1.07.75 2.11 1.51 4.16 2.21 6.2v.16c2 5.34 3.83 10.46 5.66 15.31s3.67 9.6 5.34 14c1 2.48 1.94 4.8 2.85 7.06-1.34-.16-2.64-.27-3.88-.43zm27.17-28.78c-.7 6-1.29 11.43-1.83 16.23-.27 1.88-.43 3.71-.65 5.44-.75-1.35-1.51-2.86-2.26-4.42-1.89-3.83-3.83-8.25-5.83-13.37-1.18-2.91-2.42-6.09-3.61-9.43 1.08.11 3.72.32 7.39.65 2.42.21 4.9.48 7.27.75-.16 1.4-.36 2.8-.48 4.15zM730.54.19h34.3v93.59h.58l65-93.59H868l-62 90.58L874.64 215h-38.8l-52.07-96.58-18.93 27.07V215h-34.3zM167.77.19h41.82l62.28 160.08h.59V.19H305V215h-41.85L200.87 50.73h-.61V215h-32.49zM340.57.19H456.7v28.88h-81.83v59.59h61.48l5.54 28.64-67 .24v68.6h84.21V215H340.57zM469.44.19H504l28.28 167h.61l28.3-167h36.11l28.89 167.9h.61l28-167.9h34L646.06 215h-39.72L578.66 53.16h-.61L550.68 215h-39.74zM885.25.19h34.3V215h-19.82l-14.48-26.2zM988.79 29.07h-51.13V.19h118.55l-20.06 28.88h-13V215h-34.36zM1067.9.19h34.3v86.07h63.19V.19h34.3V215h-34.3v-99.86h-63.19V215h-34.3z" 
transform="translate(-3.88 -.19)"/></svg>