<svg id="logo" 
data-name="logo" 
fill="none" 
xmlns="http://www.w3.org/2000/svg"
viewBox="0 0 173 36">
<path d="M94.534 0h5.737v15.653h.097L111.239 0h6.285l-10.369 15.15 11.48 20.777h-6.489l-8.709-16.153-3.166 4.527v11.626h-5.737V0zM.41 0h6.995l10.416 26.773h.1V0h5.442v35.927h-7L5.947 8.453h-.102v27.474H.41V0zM29.311 0h19.423v4.83H35.048v9.967h10.283l.926 4.79-11.205.04V31.1h14.084v4.827H29.31V0zM50.865 0h5.78l4.73 27.93h.102L66.21 0h6.04l4.832 28.081h.102L81.867 0h5.686l-7.148 35.927h-6.643L69.132 8.86h-.102l-4.577 27.068h-6.647L50.866 0zM120.41 0h5.736v35.927h-3.315l-2.421-4.382V0zM137.727 4.83h-8.552V0h19.828l-3.355 4.83h-2.174v31.097h-5.747V4.83zM150.958 0h5.737v14.395h10.568V0H173v35.927h-5.737V19.226h-10.568v16.701h-5.737V0z" 
fill="#fff"/></svg>