<?xml version="1.0" encoding="utf-8"?>
<!-- Generator: Adobe Illustrator 24.2.3, SVG Export Plug-In . SVG Version: 6.00 Build 0)  -->
<svg version="1.1" id="newkith-logo" xmlns="http://www.w3.org/2000/svg" xmlns:xlink="http://www.w3.org/1999/xlink" x="0px" y="0px"
	 viewBox="0 0 813.9 169" style="fill: black;" xml:space="preserve">
<path d="M237.9,128.4c0.8,0,1.6,0.8,1.4,1.6c-2.4,18.9-20.3,35.5-49.1,35.4c-34.1-0.1-52.4-22.7-52.3-53.7
	c0.1-32.6,19.6-54,52.1-53.9c33.7,0.1,52,22.7,52.5,58.5c0,0.8-0.8,1.6-1.6,1.6l-73.1-0.3c1.1,19.3,8.6,27.9,22.9,27.9
	c10.1,0,17.3-4.5,19.9-15.6c0.2-1,1.2-1.6,2-1.6L237.9,128.4z M190.2,77.5c-11.9,0-19,7.1-21.5,21.2l41.8,0.2
	C209.3,88,203.2,77.6,190.2,77.5z"/>
<path d="M343.9,165.3c-0.8,0-1.9-0.6-2.1-1.7l-16-74.9c-0.2-0.7-1.2-0.7-1.3,0l-14,74.9c0,1-1,1.7-1.8,1.7h-32.9
	c-0.8,0-1.9-0.6-2.1-1.7L251.1,59.9c-0.2-0.8,0.4-1.7,1.2-1.7h27.8c0.8,0,1.8,0.8,1.8,1.7l11.4,74.8c0.1,0.7,1.2,0.8,1.3,0
	l14.1-74.8c0-1,1-1.7,1.8-1.7h34c0.8,0,1.9,0.6,1.9,1.7l13.5,73.2c0.1,0.7,1.2,0.7,1.3,0l11.9-73.2c0-0.8,1-1.7,1.9-1.7h25.3
	c0.8,0,1.4,0.8,1.2,1.7l-22.4,103.7c-0.2,1-1.2,1.7-2.1,1.7H343.9z"/>
<g>
	<circle cx="590.2" cy="21.6" r="17.3"/>
	<path d="M515.9,143.4l-11.6-20.7c-0.7-1.3-2.5-1.4-3.5-0.3l-7.7,9.5c-0.3,0.4-0.5,0.8-0.5,1.3l0.2,30.7c0,0.8-0.8,1.6-1.6,1.6
		h-27.2c-0.8,0-1.6-0.8-1.6-1.6l0.6-70.3l-0.6-70.3c0-0.8,0.8-1.6,1.6-1.6h27.2c0.8,0,1.6,0.8,1.6,1.6l-0.4,69.7v0
		c0,2,2.5,2.9,3.7,1.3l26-34.9c0.1-0.1,0.1-0.2,0.2-0.2c0.6-0.6,1.6-1.1,2.6-1.1h30.7c0.6,0,1,0.8,0.6,1.2l-31.1,37.2
		c-0.6,0.7-0.7,1.7-0.3,2.4l37.5,65.1c0.4,0.6,0,1.4-0.8,1.4h-32.5c-1,0-2.1-0.6-2.5-1.4L515.9,143.4z"/>
	<path d="M576.2,165.3c-0.8,0-1.6-0.8-1.6-1.7l0.4-51.8l-0.4-52c0-0.8,0.8-1.7,1.6-1.7h28c0.8,0,1.6,0.8,1.6,1.7l-0.4,52l0.4,51.8
		c0,0.8-0.8,1.7-1.6,1.7H576.2z"/>
	<path d="M690.5,159.9c0,1-0.6,1.8-1.6,2.3c-6,1.8-12.7,3.5-19.3,3.5c-17.9,0-34.9-9-34.9-33l0.2-50.7c0-1.2-0.9-2.1-2.1-2.1h-7.9
		c-2.1,0-3.7-1.7-3.7-3.7V61.8c0-2.1,1.7-3.7,3.7-3.7h7.9c1.2,0,2.1-1,2.1-2.1l-0.2-22.7c0-0.8,0.8-1.6,1.6-1.6h27.5
		c0.8,0,1.6,0.8,1.6,1.6L665.2,56c0,1.2,0.9,2.1,2.1,2.1h19.6c2.1,0,3.7,1.7,3.7,3.7v14.2c0,2.1-1.7,3.7-3.7,3.7h-19.6
		c-1.2,0-2.1,0.9-2.1,2.1l0.2,49.9c0,9,4.5,11.9,11.3,11.9c5.1,0,9-0.8,12.1-1.8c0.8-0.2,1.6,0.4,1.6,1.2V159.9z"/>
	<path d="M759,79.8c-9.5,0-19.9,7.7-23.3,22.3c0,0.2-0.1,0.4-0.1,0.5l0.6,61c0,0.8-0.8,1.6-1.6,1.6h-26.4c-0.8,0-1.6-0.8-1.6-1.6
		l0.6-70.3l-0.6-69.9c0-0.8,0.8-1.6,1.6-1.6h26.4c0.8,0,1.6,0.8,1.6,1.6l-0.4,42.4c0,1.9,2.2,2.8,3.5,1.6
		c6.9-6.8,16.2-10.1,27.7-10.1c23.2,0,37.4,14.1,36.8,45.1v22.6l0.4,38.7c0,0.8-0.8,1.6-1.6,1.6h-27.2c-0.8,0-1.6-0.8-1.6-1.6
		l0.4-38.3V98.6C774,85.9,767.2,79.8,759,79.8z"/>
</g>
<path d="M35.5,115.3V162c0,1.8-1.5,3.3-3.3,3.3h-23c-1.8,0-3.3-1.5-3.3-3.3c0,0,0-46.9,0-47.1C7.5,83.2,33.9,58,66.1,58
	c32.2,0,58.7,25.2,60.2,56.8c0,0.2,0,47.1,0,47.1c0,1.8-1.5,3.3-3.3,3.3h-23c-1.8,0-3.3-1.5-3.3-3.3v-46.6
	c0-15.8-14.5-28.1-30.7-28.1C50,87.3,35.5,101.3,35.5,115.3z"/>
</svg>
