<?xml version="1.0" encoding="utf-8"?>
<!-- Generator: Adobe Illustrator 24.2.3, SVG Export Plug-In . SVG Version: 6.00 Build 0)  -->
<svg version="1.1" id="newkith-logo-mobile" xmlns="http://www.w3.org/2000/svg" xmlns:xlink="http://www.w3.org/1999/xlink" x="0px" y="0px"
	 viewBox="0 0 170.1 149.1" style="fill: black;" xml:space="preserve">
<path d="M43.3,79.3v63.8c0,2.5-2,4.5-4.5,4.5H7.4c-2.5,0-4.5-2-4.5-4.5c0,0,0-64.2,0-64.4C5,35.4,41.1,0.9,85.2,0.9
	c44.1,0,80.2,34.5,82.3,77.7c0,0.3,0,64.4,0,64.4c0,2.5-2,4.5-4.5,4.5h-31.4c-2.5,0-4.5-2-4.5-4.5V79.4c0-21.6-19.8-38.4-41.9-38.4
	C63.2,40.9,43.3,60.1,43.3,79.3z"/>
</svg>
